<svg xmlns="http://www.w3.org/2000/svg" version="1.1" xmlns:xlink="http://www.w3.org/1999/xlink" width="512" height="512" x="0" y="0" viewBox="0 0 512 512" style="enable-background:new 0 0 512 512" xml:space="preserve" class=""><g><path d="M497.697 242.93c12.975-12.641 17.554-31.194 11.954-48.41-5.59-17.223-20.199-29.54-38.126-32.145l-110.687-16.083a17.259 17.259 0 0 1-12.986-9.435L298.351 36.549c-8.015-16.235-24.244-26.32-42.352-26.32s-34.337 10.085-42.352 26.32l-49.501 100.307a17.25 17.25 0 0 1-12.977 9.435L40.475 162.374c-17.928 2.606-32.537 14.923-38.124 32.137-5.603 17.225-1.024 35.779 11.947 48.416l80.098 78.084a17.23 17.23 0 0 1 4.96 15.249L80.444 446.514c-3.056 17.85 4.143 35.548 18.788 46.186 14.648 10.643 33.708 12.022 49.744 3.599l99.002-52.052a17.242 17.242 0 0 1 16.036-.003l99.01 52.055c16.036 8.424 35.096 7.044 49.744-3.599 14.644-10.639 21.844-28.336 18.788-46.186l-18.913-110.249a17.237 17.237 0 0 1 4.962-15.257z" fill="#ffffff" opacity="1" data-original="#000000" class=""></path></g></svg>